<svg width="30" height="30" viewBox="0 0 30 30" fill="none" xmlns="http://www.w3.org/2000/svg">
<path fill-rule="evenodd" clip-rule="evenodd" d="M12.1182 6.77484C12.125 6.76834 12.1288 6.76434 12.1295 6.76364L12.1296 6.76353C12.1259 6.76724 12.1221 6.77101 12.1182 6.77484ZM10.0855 8.6572C9.28647 9.37472 8.3574 10.1906 7.45779 10.9485C6.46713 11.7831 5.48252 12.5729 4.73299 13.0877C4.37509 13.3335 3.99894 13.5676 3.67518 13.6912C3.55125 13.7386 3.22747 13.8565 2.86246 13.774C2.6352 13.7226 2.37983 13.5893 2.19954 13.3295C2.03246 13.0886 2 12.8395 2 12.677C2.00001 12.1865 2.19706 11.6026 2.38749 11.1096C2.59512 10.5721 2.87307 9.95569 3.15247 9.34229C3.17523 9.29232 3.19798 9.2424 3.2207 9.19255C3.77865 7.96823 4.31644 6.78817 4.52986 5.93448C4.66381 5.39869 5.20674 5.07293 5.74254 5.20687C6.27833 5.34082 6.60409 5.88376 6.47014 6.41955C6.21015 7.45952 5.60119 8.7938 5.07902 9.9379C5.04307 10.0167 5.00753 10.0945 4.97255 10.1713C4.91621 10.295 4.86105 10.4164 4.80738 10.5353C5.23222 10.1989 5.69363 9.81962 6.16915 9.41898C8.12987 7.76704 10.2123 5.85241 10.7153 5.34933C10.7785 5.28621 10.9652 5.10497 11.2602 5.03145C11.4341 4.98813 11.6599 4.97946 11.8952 5.07128C12.1265 5.16159 12.2797 5.31501 12.3722 5.4463C12.532 5.67332 12.5642 5.90802 12.5744 5.99249C12.5884 6.1085 12.5879 6.22013 12.584 6.31022C12.5695 6.65192 12.4827 7.13585 12.3738 7.6498C12.1482 8.71394 11.7606 10.2065 11.3648 11.6874C11.227 12.2031 11.0882 12.7174 10.954 13.2147C10.893 13.4406 10.833 13.6629 10.7745 13.8802C13.1442 11.3985 16.6495 7.72005 18.7759 5.48736C19.121 5.12499 19.6808 5.07351 20.0863 5.36688C20.4917 5.66025 20.6178 6.20813 20.3815 6.64924L15.1487 16.4171L20.8804 11.8921C21.2693 11.5851 21.8246 11.6092 22.1854 11.9489C22.5463 12.2885 22.6039 12.8413 22.3209 13.2481L17.5295 20.1357L22.9266 16.3578C23.28 16.1104 23.7522 16.1175 24.0979 16.3755C24.4437 16.6334 24.5851 17.084 24.4487 17.4932L22.9828 21.891L26.8211 21.1931C27.3645 21.0944 27.8851 21.4548 27.9839 21.9981C28.0827 22.5415 27.7223 23.0621 27.1789 23.1609L21.6789 24.1609C21.3313 24.2241 20.9761 24.0992 20.7446 23.8322C20.5131 23.5653 20.4396 23.196 20.5513 22.8608L21.5944 19.7316L14.0735 24.9963C13.6764 25.2742 13.1372 25.2274 12.7939 24.8852C12.4507 24.5429 12.4023 24.0038 12.6791 23.606L16.8317 17.6366L12.6197 20.9619C12.2479 21.2554 11.7211 21.2478 11.358 20.9437C10.9948 20.6396 10.8948 20.1223 11.1185 19.7048L15.1353 12.2069C12.4509 15.022 9.95189 17.6394 9.70712 17.8841C9.66417 17.9271 9.50308 18.0868 9.23601 18.1576C9.07998 18.1989 8.87361 18.213 8.65277 18.1386C8.43286 18.0645 8.27902 17.9298 8.18181 17.807C8.01477 17.5961 7.97941 17.3784 7.97011 17.3195C7.95603 17.2302 7.95521 17.1537 7.95593 17.1078C7.95851 16.9441 7.99192 16.7549 8.01996 16.6108C8.08367 16.2833 8.19876 15.8095 8.33963 15.261C8.52619 14.5346 8.77043 13.6296 9.02784 12.6758C9.1613 12.1813 9.29829 11.6737 9.43262 11.171C9.6679 10.2907 9.89507 9.42535 10.0855 8.6572ZM2.9616 11.8229C2.93257 11.8339 2.93613 11.8292 2.96485 11.8216C2.96374 11.822 2.96266 11.8225 2.9616 11.8229Z" fill="#50E3A4"/>
</svg>
